<svg height="100" viewBox="-57 0 512 512" width="100" xmlns="http://www.w3.org/2000/svg"><path d="M82.79 458.453h-4.263a7.497 7.497 0 00-7.5 7.5 7.5 7.5 0 007.5 7.5h4.262c4.14 0 7.5-3.36 7.5-7.5 0-4.144-3.355-7.5-7.5-7.5zM77.781 32.805c-24 0-43.527 19.32-43.527 43.066 0 23.75 19.527 43.07 43.527 43.07s43.524-19.32 43.524-43.07c0-23.746-19.524-43.066-43.524-43.066zm0 71.136c-15.73 0-28.527-12.593-28.527-28.07 0-15.476 12.797-28.066 28.527-28.066 15.727 0 28.524 12.59 28.524 28.066 0 15.48-12.797 28.07-28.524 28.07zm268.715-57.226H240.188a7.5 7.5 0 100 15h106.308a7.5 7.5 0 100-15zm0 27.985H240.188a7.5 7.5 0 100 15h106.308a7.5 7.5 0 100-15zm-101.008 66.34a7.532 7.532 0 00-5.3-2.2c-1.97 0-3.91.8-5.297 2.2a7.546 7.546 0 00-2.203 5.3c0 1.98.8 3.91 2.203 5.308a7.548 7.548 0 005.297 2.192c1.972 0 3.91-.8 5.3-2.192a7.533 7.533 0 002.2-5.308 7.536 7.536 0 00-2.2-5.3zm0 25.87a7.532 7.532 0 00-5.3-2.2c-1.97 0-3.91.802-5.297 2.2a7.505 7.505 0 00-2.203 5.3 7.512 7.512 0 007.5 7.5c1.972 0 3.91-.8 5.3-2.198a7.522 7.522 0 002.2-5.301c0-1.98-.797-3.91-2.2-5.3zm-10.598 25.871a7.517 7.517 0 00-2.202 5.297c0 1.973.8 3.902 2.203 5.3a7.506 7.506 0 005.297 2.2 7.56 7.56 0 005.312-2.2 7.554 7.554 0 002.188-5.3 7.552 7.552 0 00-2.188-5.297 7.553 7.553 0 00-5.313-2.203c-1.968 0-3.91.8-5.296 2.203zm111.606-53.937h-84.168c-4.144 0-7.5 3.355-7.5 7.5s3.356 7.5 7.5 7.5h84.168a7.5 7.5 0 100-15zm0 25.866h-84.168a7.497 7.497 0 00-7.5 7.5 7.5 7.5 0 007.5 7.5h84.168a7.5 7.5 0 100-15zm0 25.868h-84.168a7.5 7.5 0 00-7.5 7.5c0 4.145 3.356 7.5 7.5 7.5h84.168a7.5 7.5 0 100-15zm-242.394-51.734H51.457c-4.14 0-7.5 3.355-7.5 7.5s3.36 7.5 7.5 7.5h52.645a7.5 7.5 0 000-15zm0 25.866H51.457a7.5 7.5 0 100 15h52.645c4.14 0 7.5-3.358 7.5-7.5 0-4.144-3.356-7.5-7.5-7.5zm0 25.868H51.457a7.5 7.5 0 100 15h52.645a7.5 7.5 0 007.5-7.5 7.5 7.5 0 00-7.5-7.5zm0 0"/><path d="M390.2 53.5c4.14 0 7.5-3.36 7.5-7.5V12.5c0-6.895-5.61-12.5-12.5-12.5H12.5C5.605 0 0 5.605 0 12.5v218.574c0 6.895 5.605 12.5 12.5 12.5h59.41l-8.426 14.848c-9.246 16.289-11.64 42.902-5.457 60.586l24.48 69.972H67.04c-6.894 0-12.5 5.61-12.5 12.5v19.793h-2.762c-6.894 0-12.5 5.61-12.5 12.5V499.5c0 6.895 5.606 12.5 12.5 12.5h203.614c6.894 0 12.5-5.605 12.5-12.5v-65.727c0-6.894-5.606-12.5-12.5-12.5h-2.762V401.48c0-6.894-5.606-12.5-12.5-12.5h-12.426V376a7.5 7.5 0 00-7.5-7.5 7.497 7.497 0 00-7.5 7.5v12.98H98.398l-26.21-74.925c-4.762-13.61-2.774-35.696 4.343-48.23l12.625-22.25h75.07v12.562l-17.605 17.527a7.5 7.5 0 0010.586 10.629l19.813-19.73a7.494 7.494 0 002.207-5.313v-47.242c0-13.422 10.976-24.34 24.472-24.34h9V340a7.5 7.5 0 007.5 7.5c4.145 0 7.5-3.355 7.5-7.5v-9.004c8.363-.133 16.149-3.344 21.973-9.094 5.973-5.898 9.262-13.836 9.262-22.355 0-1.113-.055-2.219-.168-3.313a34.47 34.47 0 003.441.176c8.563 0 16.559-3.234 22.508-9.11 5.972-5.898 9.265-13.84 9.265-22.355 0-7.879-2.789-15.36-7.894-21.367h99.113c6.89 0 12.5-5.61 12.5-12.5V82a7.5 7.5 0 00-7.5-7.5 7.497 7.497 0 00-7.5 7.5v146.574h-155v-42.242c0-7.535-6.14-13.664-13.687-13.664h-10.313c-21.765 0-39.472 17.648-39.472 39.34v16.566H15V15h367.7v31a7.5 7.5 0 007.5 7.5zM237.628 421.273h-102.78a7.5 7.5 0 100 15H252.89V497H54.273v-60.727h44.575a7.5 7.5 0 007.5-7.5c0-4.144-3.356-7.5-7.5-7.5H69.535V403.98H237.63zm1.504-110.043c-3 2.961-7.043 4.625-11.434 4.754V276.02l10.754 10.613c3.535 3.488 5.48 8.074 5.48 12.914 0 4.476-1.706 8.625-4.8 11.683zm25.8-67.656l8.567 8.461c3.531 3.488 5.48 8.074 5.48 12.91 0 4.477-1.707 8.621-4.804 11.68-3.125 3.086-7.375 4.785-11.969 4.785-4.965 0-9.656-1.937-13.215-5.45L227.7 254.942v-11.363h37.235zm0 0"/></svg>