<svg height="100" width="100" viewBox="0 0 511.996 511.996" xmlns="http://www.w3.org/2000/svg"><path d="M504.496 288.187h-31.063a7.5 7.5 0 00-7.5 7.5v23.562h-23.562a7.5 7.5 0 00-7.5 7.5v23.562h-54.684c-12.958 0-23.5-10.542-23.5-23.5v-31.278c9.419-7.038 15.528-18.273 15.528-30.908a38.323 38.323 0 00-4.717-18.463l56.276-32.49c10.734-6.213 14.425-19.999 8.228-30.731l-19.817-34.32 20.412-11.784a7.498 7.498 0 002.745-10.245L404.25 72.739c-10.621-18.38-34.215-24.702-52.593-14.093l-79.64 45.98a7.5 7.5 0 007.5 12.99l79.64-45.979c11.22-6.477 25.622-2.614 32.105 8.604l27.34 47.355L160.77 276.452l-61.66-54.679 152.099-87.817a7.5 7.5 0 00-7.5-12.99l-161.11 93.02a7.501 7.501 0 00-1.226 12.106l41.208 36.543-7.462 4.307-32.579 2.653c-6.082 1.581-8.044 5.323-5.886 11.226l14.69 25.44a7.501 7.501 0 0012.991-7.501l-8.764-15.176 17.716-1.443 26.37 45.686-9.892 14.985-9.091-15.742a7.501 7.501 0 00-12.99 7.502l15.16 26.25c2.805 4.856 9.701 5.006 12.754.381l18.155-27.502 45.771-26.433 4.282 7.417c6.301 10.901 20.34 14.248 30.733 8.232l66.205-38.216a38.876 38.876 0 009.875 10.832v31.339c0 38.793 33.184 70.415 71.67 69.5a7.5 7.5 0 000-15c-30.145-.203-56.67-23.11-56.67-54.5V302.34a38.48 38.48 0 0016.07 0v24.471c0 21.229 17.271 38.5 38.5 38.5h54.68v16.06h-19.9a7.5 7.5 0 000 15h19.903v23.565a7.5 7.5 0 007.5 7.5h23.562v23.562a7.5 7.5 0 007.5 7.5h31.063a7.5 7.5 0 007.5-7.5V295.687a7.502 7.502 0 00-7.501-7.5zm-353.282 29.657l-23.561-40.818 6.757-3.901 20.451 18.136c2.814 2.178 5.722 2.472 8.726.884l20.405-11.781 8.031 13.911zm75.817-7.915c-4.171 1.914-7.583.998-10.238-2.749l-19.81-34.315L399.196 156.12l19.817 34.321c2.066 3.577.831 8.174-2.745 10.244l-58.576 33.818c-26.718-21.366-67.268 2.028-62.167 35.888zm83.06-45.305c0-12.992 10.57-23.562 23.563-23.562s23.562 10.57 23.562 23.562-10.57 23.563-23.562 23.563-23.563-10.571-23.563-23.563zm139.781 147.812v-78.187h16.062v78.187zm47.124 31.062h-16.063V303.187h16.063zM117.52 69.813a7.5 7.5 0 000-15C52.719 54.813 0 107.532 0 172.333a7.5 7.5 0 0015 0c0-56.53 45.99-102.52 102.52-102.52z"/><path d="M116.218 100.875a7.5 7.5 0 000-15c-46.955 0-85.155 38.201-85.155 85.156a7.5 7.5 0 0015 0c0-38.684 31.471-70.156 70.155-70.156z"/><path d="M116.263 131.846a7.5 7.5 0 000-15c-29.852 0-54.139 24.287-54.139 54.139a7.5 7.5 0 0015 0c.001-21.581 17.558-39.139 39.139-39.139z"/></svg>