<svg height="100" viewBox="0 0 512 512" width="100" xmlns="http://www.w3.org/2000/svg" data-name="Layer 1"><path d="M62.874 508.746h386.252a6 6 0 006-6V384.74a95.951 95.951 0 00-35.893-74.582l2.667-7.358a6 6 0 00-3.616-7.689l-73.876-26.491a6 6 0 00-7.667 3.607l-1.025 2.833-26.963-14.36v-21.091a85.12 85.12 0 0032.881-55.978c.084-.606.152-1.216.219-1.826l8.805-7.194a27.178 27.178 0 008.071-31.341 25.1 25.1 0 00-8.963-11.1l1.56-16.027a5.985 5.985 0 001.85-2.542l10.455-27.916c7.588-20.263.746-42.866-16.639-54.969q-.78-.544-1.591-1.064c-27.316-17.52-57.033-26.4-88.267-26.4h-1.094c-31.754-.212-61.807 8.672-89.444 26.4-.538.345-1.068.7-1.584 1.059-17.388 12.1-24.232 34.708-16.643 54.972l10.455 27.917a5.983 5.983 0 001.609 2.346L161.7 133.8a25.525 25.525 0 00-7.1 9.747 27.18 27.18 0 008.072 31.342l8.833 7.216a85 85 0 0031.914 56.752v24.261l-26.707 13.132-1.456-4.024a6 6 0 00-7.667-3.607l-73.87 26.488A6 6 0 0090.1 302.8l2.663 7.361a95.956 95.956 0 00-35.889 74.579v118.006a6 6 0 006 6zm380.252-12h-61.662v-55.409h61.662zm-44.978-196.11l10.418 3.736-4.837 13.365L393.311 314zm-29.363-10.53l18.068 6.479-4.837 13.366-18.068-6.479zm-22.8-8.175l11.5 4.125-4.837 13.366-11.5-4.125zm-14.38 4.474l-3.788 10.467a6 6 0 003.617 7.69l73.876 26.49a5.993 5.993 0 007.667-3.606l1.9-5.267a83.9 83.9 0 0128.243 62.561v44.6h-67.656a6 6 0 00-6 6v61.409h-73.986l-18.894-137.468a5.983 5.983 0 003.387-3.538l7.939-22.5 29.159 10.395a6 6 0 007.955-6.494l-8.28-58.4zm-55 42.813l-6.539 18.528h-28.133l-6.633-18.781 20.661-7.106zm-57.222-54.166a11.607 11.607 0 01-3.959-8.72v-19.538a85.837 85.837 0 0081.328.508v19.01a11.6 11.6 0 01-3.976 8.734l-36.769 32.137zm92.366 53.955l-44.377-15.82 33.3-29.105a23.684 23.684 0 004.054-4.6zm31.316-163.689l-1.364 1.115c-.055-.444-.1-.887-.167-1.331l-3.644-25.633c4.181 1.452 8.091 4.275 9.707 8.285a15.234 15.234 0 01-4.531 17.564zM159.607 81.477c-5.664-15.123-.622-31.947 12.264-40.916.4-.277.8-.546 1.206-.807 25.353-16.26 52.89-24.5 81.947-24.5h2.029c28.978 0 56.519 8.241 81.867 24.5q.613.395 1.209.809c12.883 8.968 17.925 25.792 12.261 40.915l-9 24.02H168.6zm12.18 83.717c-.071.5-.129.99-.189 1.484l-1.328-1.085a15.233 15.233 0 01-4.533-17.564c1.687-4.185 5.554-6.994 9.682-8.383zm163.425-47.7l-2.589 5.613a13.12 13.12 0 01-11.828 7.512h-125.59a13.12 13.12 0 01-11.828-7.512l-2.637-5.607zm-151.823 62.92a52.925 52.925 0 01.279-13.534l3.635-25.567a24.9 24.9 0 007.9 1.306H320.8a24.827 24.827 0 005.34-.582l3.519 24.751a54.692 54.692 0 01.093 15.2c-4.988 36.09-36.405 63.305-73.079 63.305a73.577 73.577 0 01-73.284-64.876zm23.916 98.866a23.573 23.573 0 004.165 4.789l33.081 29.031L198.33 329zm-41.291 2.648l4.837 13.366-10.889 3.9-4.836-13.366zm-22.183 7.955l4.836 13.365-18.067 6.482-4.836-13.365zm-29.363 10.529l4.836 13.366-11.033 3.956-4.837-13.365zM68.874 384.74a83.9 83.9 0 0128.243-62.561l1.905 5.267a5.993 5.993 0 007.667 3.606l73.876-26.49a6 6 0 003.617-7.69l-3.37-9.312 14.021-6.735-10.129 56.1a6 6 0 007.856 6.74l31.4-10.8 8.073 22.875a5.983 5.983 0 003.387 3.538l-6.78 49.327a6 6 0 0011.889 1.634l6.94-50.5h17.07l18.83 137h-54.73l6.117-44.5a6 6 0 00-11.889-1.634l-6.341 46.138h-73.99v-61.406a6 6 0 00-6-6H68.874zm0 56.6h61.662v55.409H68.874z"/><path d="M162 413.068a6 6 0 006-6v-6.907a6 6 0 00-12 0v6.907a6 6 0 006 6zm0 73.238a6 6 0 006-6v-49.979a6 6 0 00-12 0v49.979a6 6 0 006 6zM254.48 96.48a24.733 24.733 0 10-24.735-24.732A24.763 24.763 0 00254.48 96.48zm0-37.465a12.733 12.733 0 11-12.735 12.733 12.75 12.75 0 0112.735-12.733z"/></svg>