<svg height="100" viewBox="0 0 503.531 503.531" width="100" xmlns="http://www.w3.org/2000/svg"><path d="M34.641 225.463h15v-19.451L192.14 94.026l142.501 112.048v41.644h15v-37.665h30v-135h-52.419V45.567h-15v29.486H297.3V15.567h14.922v15h15v-30H282.3v66.642L192.018 0 96.512 75.054H4.641v135h30zm-15-135.409h134.833v-15h-33.687l71.477-56.171 75.455 56.171h-38.245v15h135.167v105h-19.748L192.142 74.946 39.308 195.054H19.641zm15 150.409h15v15h-15z"/><path d="M154.641 165.717h15v15h-15zm-120-60.522h15v15h-15zm150 60.522h15v15h-15zm-45.167 134.679h15v15h-15zm75.167-134.679h15v15h-15zm89.833 110.996v-66.741h-105.25v135.416h74.958v-15h-59.958V224.972h30.084v15.231h15v-15.231h30.166v51.741z"/><path d="M244.308 284.96h15v29.758h-15zm0-29.497h15v15h-15zM34.642 404.806h239.54v-15h-89.708V209.972h-104.5v179.834H49.641V270.463h-15v119.343H19.642V435.5h269.54v-15H34.642zm60.332-179.834h74.5v164.834h-74.5zm-60.333-90.278h15v30.668h-15zm359.541 105.763l-104.708 55.748v65.556c0 47.473 25.246 92.724 65.645 117.659l39.063 24.111 39.063-24.111c40.398-24.934 65.645-70.185 65.645-117.659v-65.556zm89.708 121.304c0 43.063-21.878 82.276-58.523 104.896l-31.185 19.248-31.185-19.248c-36.646-22.619-58.523-61.832-58.523-104.896v-56.548l89.708-47.762 89.708 47.762z"/><path d="M334.384 375.324c0 33.181 26.995 60.176 60.176 60.176 33.182 0 60.177-26.995 60.177-60.176 0-33.182-26.995-60.177-60.177-60.177-33.181 0-60.176 26.996-60.176 60.177zm60.176-45.177c24.91 0 45.177 20.267 45.177 45.177S419.47 420.5 394.56 420.5s-45.176-20.266-45.176-45.176 20.266-45.177 45.176-45.177z"/><path d="M423.505 365.04l-10.607-10.607-23.717 23.717-11.455-11.456-10.607 10.606 22.062 22.063z"/></svg>